<?xml version="1.0" encoding="UTF-8"?>
<svg width="24px" height="24px" viewBox="0 0 24 24" version="1.1" xmlns="http://www.w3.org/2000/svg" xmlns:xlink="http://www.w3.org/1999/xlink">
    <!-- Generator: sketchtool 59.1 (101010) - https://sketch.com -->
    <title>10CA60D1-EEE0-4F83-A919-44B57A208517</title>
    <desc>Created with sketchtool.</desc>
    <g id="To-do-Cham-SG" stroke="none" stroke-width="1" fill="none" fill-rule="evenodd">
        <g id="To-do-app---add-new" transform="translate(-401.000000, -28.000000)" fill-rule="nonzero">
            <g id="Icons-/-01-Applications-/-Vision-squircle" transform="translate(389.000000, 15.000000)">
                <g id="vision_icon_512">
                    <g id="Connect_Box" transform="translate(12.000000, 13.000000)">
                        <path d="M16,16 L8,16 L8,8 L16,8 L16,16 Z M10.2857143,13.7142857 L13.7142857,13.7142857 L13.7142857,10.2857143 L10.2857143,10.2857143 L10.2857143,13.7142857 Z" id="Shape" fill="#32C5FF"></path>
                        <path d="M22.9090844,0 L14.7272662,0 L9.27272073,0 L1.09090909,0 C0.488452364,0 0,0.488458909 0,1.09090582 L0,9.27273055 L0,14.727276 L0,22.9090909 C0,23.5115411 0.488452364,24 1.09090909,24 L9.27272073,24 L14.7272662,24 L22.9090844,24 C23.5115411,24 24,23.5115411 24,22.9090909 L24,14.727276 L24,9.27273055 L24,1.09090582 C24,0.488457818 23.5115411,0 22.9090844,0 Z M15.8181818,21.8181818 L15.8181818,17.4545487 L13.6363636,17.4545487 L13.6363636,21.8181818 L10.3636364,21.8181818 L10.3636364,17.4545487 L8.18181164,17.4545487 L8.18181164,21.8181818 L2.18181164,21.8181818 L2.18181164,15.8181818 L6.545448,15.8181818 L6.545448,13.6363636 L2.18181164,13.6363636 L2.18181164,10.3636364 L6.545448,10.3636364 L6.545448,8.18181818 L2.18181164,8.18181818 L2.18181164,2.18181818 L8.18181164,2.18181818 L8.18181164,6.54545782 L10.3636364,6.54545782 L10.3636364,2.18181818 L13.6363636,2.18181818 L13.6363636,6.54545782 L15.8181818,6.54545782 L15.8181818,2.18181818 L21.8181818,2.18181818 L21.8181818,8.18181818 L17.4545389,8.18181818 L17.4545389,10.3636364 L21.8181818,10.3636364 L21.8181818,13.6363636 L17.4545389,13.6363636 L17.4545389,15.8181818 L21.8181818,15.8181818 L21.8181818,21.8181818 L15.8181818,21.8181818 Z" id="Shape" fill="#FFFFFF"></path>
                    </g>
                </g>
            </g>
        </g>
    </g>
</svg>