<?xml version="1.0" encoding="UTF-8"?>
<svg width="550px" height="509px" viewBox="0 0 550 509" version="1.1" xmlns="http://www.w3.org/2000/svg" xmlns:xlink="http://www.w3.org/1999/xlink">
    <!-- Generator: sketchtool 59.1 (101010) - https://sketch.com -->
    <title>A37DF1AB-2570-4BBC-B897-60CFB63B16EA</title>
    <desc>Created with sketchtool.</desc>
    <defs>
        <linearGradient x1="31.2508187%" y1="41.2903856%" x2="51.0375255%" y2="63.4301638%" id="linearGradient-1">
            <stop stop-color="#C0D2FF" offset="0%"></stop>
            <stop stop-color="#9FC3FC" offset="100%"></stop>
        </linearGradient>
        <linearGradient x1="75.2194918%" y1="47.2377442%" x2="36.7816942%" y2="73.2844281%" id="linearGradient-2">
            <stop stop-color="#C0D2FF" offset="0%"></stop>
            <stop stop-color="#9FC3FC" offset="100%"></stop>
        </linearGradient>
    </defs>
    <g id="To-do-Cham-SG" stroke="none" stroke-width="1" fill="none" fill-rule="evenodd">
        <g id="To-do-app---added-new" transform="translate(-969.000000, -15.000000)" fill-rule="nonzero">
            <g id="NST_M17_06" transform="translate(969.000000, 15.000000)">
                <path d="M476.513027,461.56396 C444.815247,483.576199 397.450765,495.606656 350.519406,502.041808 C325.070982,505.529236 299.746309,507.371392 277.109752,508.263556 C272.626348,508.439786 268.255237,508.581597 263.996416,508.688987 C259.871428,508.793623 255.869732,508.870265 251.991327,508.918912 C246.921717,508.984998 242.084482,509.008404 237.522246,509 C235.666001,509 233.85559,508.989588 232.091012,508.973984 C230.188018,508.95838 228.341857,508.939105 226.552529,508.916158 L225.002908,508.895506 C219.628049,508.814275 214.827939,508.695871 210.690576,508.567829 C201.880978,508.292469 196.11562,507.974429 194.372125,507.871169 L193.811127,507.835372 C193.742548,507.837647 193.673913,507.833034 193.606253,507.821604 C192.506256,507.777547 191.406259,507.718345 190.317262,507.659142 C189.992763,507.643997 189.668264,507.630229 189.343765,507.59994 L186.731273,507.46226 C184.976779,507.359 183.222284,507.240596 181.496664,507.107046 C180.831166,507.060235 180.165668,507.010671 179.504295,506.961106 C179.003797,506.923932 178.506048,506.884005 178.0083,506.845455 C176.669054,506.738065 175.339891,506.62838 174.020811,506.5164 L172.545441,506.37872 C168.977785,506.052878 165.472462,505.688486 162.029473,505.285543 C161.824598,505.255254 161.616974,505.241486 161.410724,505.211196 C159.52423,504.989073 157.666152,504.752723 155.836491,504.502145 C155.747116,504.488377 155.659117,504.488377 155.571117,504.473233 L154.037997,504.252945 C152.90225,504.089106 151.751378,503.926644 150.630757,503.765559 C150.025759,503.676067 149.42076,503.572807 148.817137,503.483315 C147.150642,503.217593 145.499272,502.951871 143.846527,502.657237 L143.258029,502.569122 C142.78503,502.481007 142.314782,502.40666 141.841783,502.317168 C140.072622,502.007847 138.33096,501.682923 136.616799,501.342395 C136.587924,501.342395 136.572799,501.342395 136.557674,501.328627 C132.516561,500.545229 128.593698,499.690238 124.76021,498.773291 C124.347711,498.685176 123.948962,498.581916 123.536463,498.497931 C121.354345,497.967864 119.201101,497.419899 117.091858,496.859542 L116.914483,496.815485 C114.820364,496.253751 112.770246,495.664482 110.735252,495.058691 C110.410753,494.955431 110.071129,494.864563 109.748005,494.76268 C104.248021,493.102262 98.9831621,491.309212 93.9534272,489.383531 C92.3171821,488.758465 90.7047703,488.119631 89.1161917,487.467029 C88.9993171,487.422972 88.8948174,487.378914 88.7916927,487.329349 C86.5504494,486.398634 84.3380811,485.440383 82.1999625,484.465611 C82.1147073,484.419306 82.0259812,484.379718 81.9345883,484.347206 C77.612518,482.353603 73.4783637,480.26133 69.5321256,478.070386 C69.4294593,478.01256 69.3263346,477.953358 69.2227515,477.892779 C67.3500072,476.846413 65.5350126,475.782148 63.751643,474.688971 C63.5302687,474.551291 63.2937694,474.413612 63.072395,474.275932 C61.3463169,473.198358 59.6555303,472.10564 58.0000353,470.997777 C57.7786609,470.860097 57.5875365,470.722417 57.3647872,470.569593 C55.6845422,469.432358 54.0331722,468.266211 52.440927,467.069773 C52.388551,467.040381 52.3392613,467.005787 52.2938024,466.966514 C50.7290571,465.800366 49.1959367,464.603929 47.7068162,463.38684 C47.5294418,463.238146 47.3520673,463.11148 47.1760678,462.957279 C45.7460721,461.791132 44.3435763,460.596071 42.9864554,459.384489 C42.7375812,459.14768 42.472207,458.926016 42.2068328,458.696091 C40.8937117,457.499654 39.6108406,456.304593 38.3568443,455.077867 C38.12172,454.842434 37.8714708,454.59048 37.6212215,454.355048 C36.3672253,453.099409 35.146229,451.843769 33.9486076,450.559217 C33.800108,450.4119 33.6736084,450.249438 33.5361088,450.10212 C32.4361121,448.890538 31.3361154,447.666565 30.2924936,446.424694 C30.1013691,446.187885 29.8951198,445.967597 29.7026203,445.736295 C28.6411235,444.466888 27.6236266,443.180959 26.6212546,441.868871 L25.8691319,440.892721 C24.9066348,439.623314 23.9812625,438.323617 23.0668903,437.02392 C22.830391,436.683851 22.5952667,436.345159 22.3793924,435.991322 C21.4801451,434.661336 20.5918977,433.332726 19.7531503,431.973827 C19.5757758,431.708105 19.4286512,431.442383 19.2677767,431.176661 C18.515654,429.937543 17.7786562,428.698426 17.0677833,427.441409 C16.8904089,427.13163 16.7130344,426.835618 16.5370349,426.509317 C15.7986621,425.16694 15.0767893,423.792896 14.3837914,422.420229 C14.176167,422.007189 13.9712926,421.59415 13.7636683,421.181111 C13.1146702,419.837356 12.4670472,418.478457 11.862049,417.10579 C11.6695496,416.676229 11.4770501,416.249422 11.3010507,415.806093 C10.6974275,414.416904 10.1061793,413.030469 9.5603059,411.612368 C9.41455634,411.243386 9.28530673,410.873028 9.14780714,410.51093 C8.67618356,409.271812 8.21968493,408.014796 7.77281127,406.759156 C7.65456163,406.376407 7.50743707,406.006048 7.38918743,405.623298 C6.91618885,404.205197 6.47481517,402.771951 6.04719146,401.340081 C5.89869191,400.852695 5.75156735,400.366685 5.61956775,399.879299 C5.20706899,398.474966 4.8371951,397.058241 4.48382116,395.640139 C4.34632157,395.138985 4.23357191,394.621309 4.10019731,394.103633 C3.76057333,392.671764 3.43744931,391.22475 3.13770021,389.779112 C3.03457552,389.320639 2.96032574,388.87731 2.872326,388.420213 C2.62070176,387.164574 2.39932743,385.895166 2.18482807,384.624382 C2.11195329,384.167285 2.02257856,383.693667 1.94832878,383.222802 C1.72695445,381.789556 1.52070507,380.342542 1.32958064,378.909295 C1.27045582,378.358576 1.19208106,377.83264 1.13845622,377.286051 C0.96108175,375.839037 0.812582197,374.376878 0.680582593,372.899574 C0.621457771,372.339217 0.577457903,371.777484 0.533458036,371.232272 C0.415208391,369.739824 0.312083701,368.248752 0.237833924,366.742535 C0.208959011,366.255149 0.193834057,365.752618 0.164959143,365.251464 C0.104459325,363.951767 0.0604594576,362.635548 0.0467094989,361.32346 C0.0315845444,360.792016 0.0164595899,360.27434 0.0164595899,359.742897 C-0.0124153233,358.280738 0,356.8351 0.0164595899,355.372941 C0.0164595899,354.822222 0.0315845444,354.293532 0.0467094989,353.74832 C0.076959408,352.233843 0.120959276,350.691829 0.193834057,349.141555 C0.222250638,348.590836 0.251583883,348.044248 0.281833792,347.50179 C0.32583366,346.719769 0.369833528,345.921226 0.419333379,345.139205 C0.463333246,344.430154 0.507333114,343.707335 0.566457936,342.998285 L0.404208424,342.967995 C5.85056705,272.291469 32.9544856,166.454288 156.573489,237.141828 C169.6882,244.642621 181.572289,250.535314 192.381131,255.01679 C197.944365,257.324303 203.228932,259.266047 208.234834,260.842021 C208.601499,260.957672 208.964956,261.071487 209.325205,261.183467 L209.325205,261.183467 C211.492199,261.85259 213.609692,262.456546 215.677686,262.995332 C215.993935,263.07794 216.310184,263.160548 216.623683,263.237649 L216.623683,263.237649 L217.213557,263.386343 L217.213557,263.386343 C222.320937,264.679991 227.512917,265.612091 232.75101,266.175735 C234.607254,266.368486 236.417666,266.501118 238.182244,266.573629 C238.182244,266.573629 238.182244,266.573629 238.182244,266.573629 C240.911584,266.692495 243.645324,266.66492 246.371719,266.491021 C248.948145,266.329217 251.512823,266.015683 254.052446,265.552045 C255.436608,265.30055 256.790521,265.005916 258.114184,264.668141 C275.505131,260.248621 287.723345,248.834969 298.134813,234.619535 C298.800311,233.711766 299.458934,232.791606 300.110682,231.859056 C300.110682,231.859056 300.110682,231.859056 300.110682,231.859056 C304.484544,225.618032 308.564157,218.917158 312.623145,212.071721 L312.852769,211.682087 C312.929769,211.554045 313.006769,211.423249 313.083768,211.29383 C319.478874,200.481839 325.831355,189.369706 333.184833,179.264012 C333.333333,179.060246 333.480457,178.859234 333.628957,178.658221 C334.294455,177.752288 334.968661,176.855534 335.651576,175.967959 C335.85095,175.70499 336.054449,175.444776 336.257949,175.184561 C343.714551,165.621325 352.262901,157.182933 362.869619,151.090604 C363.070368,150.972199 363.271118,150.857925 363.474617,150.746404 C367.269247,148.608391 371.24909,146.818157 375.365581,145.397546 C375.969663,145.190108 376.578786,144.988178 377.192951,144.791755 C379.905744,143.934758 382.66357,143.227851 385.453926,142.67424 L386.058924,142.557212 C391.369158,141.543889 397.083641,141 403.261497,141 C404.907761,141 406.552915,141.085739 408.189483,141.264399 C408.391607,141.286428 408.593731,141.309834 408.794481,141.334616 C413.098218,141.875698 416.930331,143.05699 420.344446,144.791755 C420.729445,144.985883 421.110319,145.188272 421.482943,145.397546 C427.059926,148.509108 431.495662,153.142032 435.072027,158.880524 C435.276901,159.206825 435.484525,159.54001 435.677025,159.874572 C438.839515,165.193141 441.295258,171.401121 443.268377,178.18598 C443.315127,178.344311 443.360502,178.502643 443.405877,178.662351 C443.465001,178.861987 443.522751,179.064376 443.579126,179.268142 C444.816622,183.673895 445.861619,188.326094 446.760867,193.121479 C446.983616,194.314704 447.198574,195.514813 447.40574,196.721805 C448.021738,200.322131 448.567611,203.992673 449.06536,207.700389 C449.227609,208.893613 449.3839,210.092804 449.534233,211.297961 L449.583733,211.686218 C449.598858,211.823897 449.616733,211.946432 449.631858,212.075851 C450.044357,215.410455 450.430731,218.76158 450.800604,222.108575 C450.932604,223.309143 451.063229,224.508792 451.192478,225.707524 C451.879976,232.049054 452.528974,238.336888 453.254972,244.409942 C457.356585,278.571043 463.915315,305.852287 492.579854,296.759916 C589.814062,265.907259 549.257183,411.049258 476.513027,461.56396 Z" id="Path" fill="#EBEBEB"></path>
                <path d="M231.471408,509 C229.567435,508.98431 227.720324,508.964927 225.930076,508.941853 L224.379659,508.921087 C219.002036,508.839405 214.199457,508.720343 210.059967,508.59159 C201.245838,508.314702 195.477515,507.994896 193.733124,507.891063 L193.171837,507.855067 C193.103222,507.857354 193.034552,507.852716 192.966857,507.841223 C191.866295,507.796921 190.765732,507.73739 189.676175,507.677859 C189.35151,507.66263 189.026844,507.648785 188.702178,507.618328 L186.088342,507.479884 C184.332945,507.37605 182.577548,507.256989 180.851041,507.122698 C180.185201,507.075627 179.51936,507.025787 178.857647,506.975947 C178.356891,506.938567 177.858887,506.898418 177.360882,506.859654 C176.020948,506.751667 174.691101,506.641374 173.371344,506.528772 L171.895214,506.390328 C168.325724,506.062677 164.818598,505.696262 161.373838,505.291082 C161.168858,505.260624 160.961127,505.24678 160.754772,505.216322 C158.867307,504.992966 157.008274,504.755303 155.177672,504.503335 C155.088251,504.489491 155.000206,504.489491 154.912161,504.474262 L153.378252,504.252751 C152.241921,504.088003 151.090458,503.924639 149.96926,503.762659 C149.363951,503.67267 148.758642,503.568837 148.154708,503.478848 C146.487356,503.211651 144.835137,502.944454 143.181542,502.648184 L142.592741,502.55958 C142.119499,502.470975 141.649009,502.396215 141.175767,502.306227 C139.405696,501.995189 137.663138,501.668461 135.948095,501.326042 C135.919206,501.326042 135.904073,501.326042 135.88894,501.312198 C131.845749,500.524451 127.920868,499.664713 124.085408,498.742675 C123.672698,498.654071 123.273744,498.550238 122.861033,498.465787 C120.677792,497.932777 118.523441,497.381769 116.413113,496.818302 L116.235647,496.774 C114.140452,496.209148 112.089278,495.616607 110.053238,495.007453 C109.728572,494.90362 109.388774,494.812247 109.065483,494.709798 C103.562671,493.040162 98.2951046,491.237158 93.2627831,489.300786 C100.373792,487.517626 104.880595,488.025716 107.322468,488.686094 C101.452343,486.088883 86.8244932,478.448152 93.8846009,469.378677 C102.438722,458.375139 120.662659,468.895507 121.44681,469.353757 C120.712185,468.691994 105.298809,454.453017 115.777538,447.983523 C126.232881,441.563869 142.101615,454.376872 142.910528,455.013715 C142.251566,453.611276 123.143052,413.494324 155.641284,407.865186 C159.306771,407.213327 163.027423,406.928587 166.748709,407.015139 C182.27902,407.444316 193.065908,415.090584 199.412025,424.55324 C203.539134,430.700159 205.78153,437.611289 206.238264,443.805279 C206.820186,451.696594 204.152698,458.245001 200.996835,463.103005 C200.75196,463.479573 200.504792,463.845066 200.255331,464.199483 C199.53859,465.223969 198.808092,466.16262 198.092726,467.011283 C197.926266,467.210642 197.759806,467.404464 197.593346,467.595517 C194.70437,470.901563 192.217099,472.691645 192.217099,472.691645 C195.416602,472.895454 198.58415,473.452576 201.662676,474.352974 C204.40794,475.141504 207.089218,476.140294 209.683024,477.340599 C213.299295,478.999193 216.736848,481.02695 219.941641,483.391991 C220.897296,484.098979 221.814431,484.829503 222.693047,485.583561 C230.97753,492.655287 235.583384,501.482484 231.471408,509 Z" id="Path" fill="url(#linearGradient-1)"></path>
                <path d="M350,502.00479 C324.648334,505.510771 299.419947,507.362727 276.869456,508.259638 C272.403099,508.436806 268.048606,508.579371 263.805978,508.687332 C259.696674,508.792525 255.710193,508.869575 251.846534,508.918481 C246.796199,508.984918 241.977355,509.008449 237.432465,508.997376 C235.583278,508.997376 233.77975,508.989532 232.021881,508.973845 C230.126123,508.958159 228.286981,508.938781 226.504456,508.915712 L224.960727,508.894951 C219.606304,508.813287 214.824444,508.694253 210.702812,508.565529 C201.926709,508.288705 196.183271,507.968973 194.446405,507.865164 C193.051982,501.693362 194.701182,495.258578 202.582827,492.058487 C203.780005,491.572198 204.927414,491.138968 206.025054,490.758796 C212.788969,488.405788 217.716024,487.914425 221.10483,488.09436 C221.838974,488.131288 222.570593,488.208451 223.296459,488.325509 C223.839296,488.41272 224.377395,488.52775 224.908676,488.670155 C224.425148,488.455616 223.88135,488.206474 223.296459,487.924113 C222.560894,487.571162 221.75958,487.166998 220.926761,486.715775 C216.890054,484.533014 212.080799,481.249876 210.328865,477.323121 C209.24127,474.882913 209.334414,472.201868 211.526043,469.367186 C212.02347,468.720841 212.580747,468.123891 213.190311,467.584436 C215.073742,465.923489 217.265371,465.005816 219.559732,464.611341 L219.584388,464.611341 C220.47595,464.461671 221.377712,464.382536 222.281461,464.374656 C222.671845,464.374656 223.064968,464.374656 223.458092,464.394034 C227.064691,464.557361 230.646634,465.624519 233.457398,466.727664 L233.457398,466.727664 L233.853261,466.886838 L233.853261,466.886838 C235.610036,467.588613 237.317515,468.410373 238.963866,469.346424 C238.781687,469.183097 237.70094,468.182377 236.336651,466.673684 L236.199674,466.524198 L236.199674,466.524198 C234.880601,465.064215 233.672242,463.505898 232.584856,461.862474 C232.390349,461.56212 232.198582,461.258997 232.016402,460.950338 C229.348094,456.476854 228.055033,451.24072 233.314942,447.981112 C237.896816,445.157502 243.521084,446.055798 248.453618,448.003258 C250.028713,448.632421 251.563937,449.359079 253.05056,450.179098 C255.471877,451.510655 257.786524,453.031358 259.973367,454.727324 C260.156916,454.865736 260.277456,454.968161 260.332247,455.004148 C260.291154,454.918333 260.185681,454.694105 260.026788,454.343922 C258.941932,451.935549 255.417519,443.625279 254.438135,434.636789 L254.438135,434.636789 C253.890228,429.67471 254.129937,424.507781 255.977754,420.01492 L255.977754,420.01492 C257.442036,416.453574 259.919946,413.315768 263.825155,411.040271 C265.8031,409.885913 268.148143,408.953015 270.912335,408.298325 C271.586261,408.137767 272.284842,407.994741 273.00808,407.869247 C305.945521,402.138981 322.07454,425.950037 323.385408,443.801062 C324.696276,461.652088 309.423362,472.680774 309.423362,472.680774 C327.287877,473.682879 348.943909,488.423782 350,502.00479 Z" id="Path" fill="url(#linearGradient-2)"></path>
                <path d="M469.900024,211 L124.099976,211 C114.103635,211 106,202.881452 106,192.866715 L106,18.1332847 C106,8.11854811 114.103635,0 124.099976,0 L469.900024,0 C479.896365,0 488,8.11854811 488,18.1332847 L488,192.862594 C488,202.877331 479.896365,210.995879 469.900024,210.995879 L469.900024,211 Z" id="Path" fill="#FFFFFF"></path>
                <path d="M469.446411,211 L122.549357,211 C112.304922,211 104,202.735316 104,192.542205 L104,18.4577952 C104,13.5624981 105.953294,8.86747124 109.432092,5.4058451 C112.91089,1.94421897 117.629412,0 122.549357,0 L469.446411,0 C475.371839,0.0108543552 480.938614,2.82603099 484.439959,7.58239548 C486.761921,10.7369975 488.009302,14.5476741 487.999948,18.4577952 L487.999948,192.542205 C487.999948,197.437739 486.046413,202.132973 482.567317,205.594639 C479.088222,209.056304 474.369346,211 469.449162,211 L469.446411,211 Z M122.549357,0.771926182 C112.733929,0.774806182 104.775813,8.69154143 104.775813,18.4577952 L104.775813,192.542205 C104.775813,202.309084 112.7333,210.226706 122.549357,210.226706 L469.446411,210.226706 C474.160807,210.226706 478.682639,208.365921 482.016221,205.04904 C485.349802,201.732159 487.220009,197.232982 487.220009,192.542205 L487.220009,18.4577952 C487.229237,14.711398 486.033864,11.0602753 483.808579,8.0381604 C480.455309,3.48094729 475.122867,0.783111759 469.446411,0.771926182 L122.549357,0.771926182 Z" id="Shape" fill="#232C33" opacity="0.24390811"></path>
                <path d="M211.945305,20.9872536 C211.740474,20.9791386 211.536466,20.9549982 211.334901,20.9150243 C211.139323,20.8769212 210.941543,20.8532614 210.742954,20.8442111 L208.437128,20.8385461 C208.134491,20.8472301 207.832548,20.8741816 207.532727,20.919273 C207.230279,20.9645959 206.925691,20.9915477 206.620416,21 C206.535747,20.9971805 206.451479,20.9862795 206.368608,20.967426 C206.285877,20.9474664 206.201555,20.9360841 206.116799,20.9334357 C205.644824,20.9334357 205.325778,20.7266614 205.157027,20.314529 C205.053316,20.0567692 205.00102,19.6578553 205.000141,19.1177873 C205.000141,18.0621997 205.217672,17.1808124 205.652734,16.4736254 C205.987599,15.9269481 206.530328,15.3807429 207.280919,14.8350098 C207.988443,14.3317645 208.691573,13.8332402 209.390308,13.3394367 C210.219122,12.6926769 210.63309,11.9571646 210.632211,11.1328999 C210.632211,10.9190443 210.468733,10.7080212 210.137823,10.4955818 C209.848267,10.298057 209.514333,10.1884314 209.171459,10.178339 C208.613789,10.178339 208.025797,10.4474289 207.404845,10.977111 C206.783894,11.5067932 206.358061,11.775883 206.128665,11.775883 C205.869464,11.7824637 205.614301,11.7060483 205.395652,11.5563623 C205.146204,11.4017231 204.994706,11.1136605 205.000141,10.804327 C205.001256,10.4599671 205.146491,10.1344075 205.395652,9.91774674 C205.903171,9.41538066 206.459667,8.97330867 207.055478,8.59920645 C208.490537,7.74305763 210.248438,7.80843901 211.624942,8.76915794 C212.457272,9.35360222 212.873876,10.118856 212.874755,11.0649193 C212.874755,12.0251452 212.670408,12.8394961 212.261714,13.5079719 C211.940032,14.0433191 211.434218,14.5626153 210.744272,15.0658606 C210.087725,15.5115111 209.432056,15.9538571 208.777267,16.3928984 C207.781898,17.0896995 207.246641,17.8884715 207.172812,18.7821331 C207.461535,18.7424777 207.88605,18.6985736 208.446356,18.6405068 C209.564332,18.5800797 210.364142,18.549394 210.845786,18.5484498 C211.306724,18.5512362 211.762044,18.6573589 212.182612,18.8600275 C212.727098,19.1206198 213,19.4520252 213,19.8514112 C212.990694,20.4711185 212.522242,20.969322 211.945305,20.973091 L211.945305,20.9872536 Z" id="Path" fill="#484689"></path>
                <path d="M262.378869,13.9083799 C263.45893,14.5438985 263.99962,15.5568429 263.99962,16.9610891 C264.014667,18.0507002 263.582046,19.0941284 262.812739,19.8236978 C262.035635,20.6010153 260.997947,21.0234919 259.925982,20.9989908 C259.136189,21.0115759 258.354802,20.8270738 257.645852,20.4606039 C256.862511,20.0406251 256.335008,19.4448843 256.063345,18.6733814 C256.021337,18.5543869 255.999899,18.4284446 256,18.301506 C255.997229,18.0005308 256.128511,17.7155314 256.35479,17.5313907 C256.567485,17.347636 256.835267,17.2492904 257.110437,17.2538717 C257.423109,17.2476986 257.718781,17.4032516 257.901691,17.6701502 C258.082218,17.9407995 258.276352,18.2011129 258.483263,18.4499786 C258.809435,18.7274977 259.289462,18.8662572 259.923344,18.8662572 C260.398946,18.8740957 260.862184,18.7067143 261.232869,18.3930872 C261.58204,18.1324538 261.791025,17.7112494 261.79466,17.2608096 C261.79466,15.8870905 260.915489,15.1091122 259.157147,14.9268747 C258.386114,14.8491694 258.000598,14.5096711 258.000598,13.9083799 C258.000598,13.4504735 258.299516,13.1165256 258.897352,12.9065362 C259.462659,12.7761023 260.026207,12.6410431 260.587998,12.5013585 C260.886346,12.4201953 261.161499,12.2640092 261.389801,12.0462273 C261.563944,11.8711706 261.663361,11.6294241 261.665422,11.3760189 C261.686522,10.5545626 261.075937,10.1433719 259.833669,10.1424468 C259.423975,10.1424468 258.975159,10.3071081 258.487219,10.6364307 C258.000598,10.9625155 257.666952,11.1276393 257.48892,11.1276393 C256.90479,11.1219606 256.429173,10.6319293 256.411496,10.0175633 C256.411496,9.54994372 256.851961,9.08232417 257.730253,8.62025501 C258.521506,8.20675167 259.161103,8 259.649043,8 C260.84032,8 261.797737,8.27011851 262.521294,8.81035553 C263.312548,9.40702142 263.708175,10.2566922 263.708175,11.3593677 C263.722987,11.8984052 263.607746,12.4326025 263.373211,12.9120866 C263.142276,13.3399988 262.796355,13.6865988 262.378869,13.9083799 L262.378869,13.9083799 Z" id="Path" fill="#484689"></path>
                <path d="M310.306785,17.4048932 L307.365989,17.4048932 C305.78784,17.4048932 304.999177,17.0470072 305.000001,16.3312353 C305.000001,16.031546 305.135978,15.6933644 305.411639,15.3221894 L306.097701,14.4616135 C306.888836,13.2051177 308.095316,11.3359541 309.717142,8.85412277 C310.056707,8.30949623 310.618269,7.98924605 311.214118,8.00042045 C311.481983,7.99319595 311.745184,8.0792295 311.966932,8.24649568 C312.208673,8.43337657 312.348387,8.74412775 312.337776,9.07132883 L312.345193,15.2369567 C312.989226,15.260327 313.419406,15.3331872 313.636968,15.4596616 C313.876781,15.6053822 313.997923,15.8968232 313.997923,16.3284859 C314.02451,16.7456588 313.793528,17.1298417 313.436712,17.2619221 C313.084864,17.3887932 312.713642,17.435547 312.345193,17.3993943 C312.360027,18.1857352 312.357555,19.0389793 312.337776,19.9591265 C312.341925,20.2362696 312.246746,20.5038593 312.073241,20.7028511 C311.887691,20.9071432 311.633044,21.0145267 311.372345,20.9984163 C310.625711,20.9984163 310.269289,20.4517352 310.303077,19.358373 L310.306785,17.4048932 Z M310.306785,11.5595755 C309.83128,12.39449 309.096596,13.6212002 308.102733,15.2397061 L310.306785,15.2397061 L310.306785,11.5595755 Z" id="Shape" fill="#484689"></path>
                <path d="M359.872548,21 C358.212048,21 356.988953,20.4099098 356.203262,19.2297295 C356.078909,19.0563861 356.008242,18.850424 356,18.6373698 C355.998191,18.3488801 356.126415,18.0748638 356.349215,17.8911327 C356.566712,17.6914381 356.851689,17.581044 357.147183,17.5820162 C357.444201,17.5795798 357.728111,17.7039524 357.927417,17.9238146 C358.307986,18.3200828 358.513958,18.5297918 358.546695,18.555665 C358.865882,18.7826227 359.307833,18.8965555 359.872548,18.8974634 C360.670833,18.9132664 361.435638,18.5775783 361.963632,17.9796462 C362.498824,17.3955828 362.787177,16.6276135 362.768419,15.8362572 C362.768419,15.0273798 362.632015,14.4268495 362.359205,14.0237726 C362.086396,13.6206956 361.684002,13.4246041 361.142476,13.4246041 C360.189462,13.4246041 359.421958,13.7328127 358.839965,14.34923 C358.611714,14.6088697 358.38119,14.8662398 358.148393,15.1213403 C357.902752,15.3747167 357.567129,15.5214571 357.214021,15.5298642 C356.919387,15.5359606 356.63523,15.4207163 356.42833,15.2112155 C356.221228,15.0177792 356.10452,14.7467435 356.106415,14.4636167 C356.106415,14.3392439 356.151883,13.8689874 356.24282,13.0528473 C356.424693,11.4650509 356.515629,10.4092434 356.515629,9.8854249 C356.501144,9.69934505 356.452599,9.51749464 356.372404,9.34889677 C356.29433,9.17992969 356.248091,8.99805428 356.235999,8.81236864 C356.234343,8.54255698 356.395942,8.29841565 356.645213,8.19413572 C356.884329,8.08197266 357.146328,8.02695696 357.410444,8.03344963 C357.518203,8.03344963 357.683253,8.04298186 357.902865,8.06068456 C358.122476,8.07838727 358.286162,8.08928124 358.395285,8.08928124 L362.307372,8.09608997 C362.404674,8.09608997 362.613373,8.07974901 362.933469,8.0470671 C363.25402,8.01710867 363.465447,8.00076771 363.569115,8.00076771 C363.83707,7.99023282 364.097877,8.08848434 364.29206,8.27311702 C364.483562,8.46247993 364.586942,8.72321007 364.577145,8.99211918 C364.577145,9.79918095 363.755535,10.2027118 362.112313,10.2027118 C361.982729,10.2027118 361.819043,10.2027118 361.619892,10.1959031 C361.420741,10.1890944 361.291157,10.1863709 361.225683,10.1863709 L358.801771,10.1863709 C358.785403,10.5159135 358.7172,11.0606121 358.597164,11.8204667 C359.308287,11.4736753 360.157179,11.3002795 361.14384,11.3002795 C362.463328,11.3002795 363.463629,11.7905083 364.144743,12.7709658 C364.714914,13.5784815 365,14.5916209 365,15.8171927 C365,17.2896946 364.545318,18.50755 363.635953,19.4707587 C362.692942,20.4893451 361.438474,20.9990922 359.872548,21 Z" id="Path" fill="#484689"></path>
                <path d="M411.390142,21 C409.816203,21 408.653242,20.4673236 407.90126,19.4019709 C407.301353,18.5500459 407.000933,17.433792 407,16.0532092 C407,13.4581421 408.151765,11.2104532 410.455295,9.31014255 C410.746385,9.04224161 411.034676,8.7810382 411.324366,8.51849528 C411.730213,8.17290307 412.066553,8.00005245 412.333385,8.00005245 C412.63363,7.99727811 412.923599,8.10465255 413.143679,8.30015601 C413.367325,8.48031618 413.501008,8.74255128 413.51174,9.02214904 C413.522936,9.29004998 413.205722,9.71869148 412.5601,10.3080735 L411.18302,11.5136278 C410.729659,11.9167499 410.353582,12.3927707 410.07184,12.9201077 C410.344458,12.8160661 410.625222,12.7327587 410.911522,12.6709598 C411.145991,12.6215418 411.385178,12.5955057 411.625253,12.5932686 C413.018193,12.5932686 414.09532,12.9402003 414.856632,13.6340637 C415.617944,14.3279271 415.999067,15.2959425 416,16.5381099 C416,17.8284994 415.596486,18.8862616 414.789457,19.7113965 C413.936713,20.5686795 412.803608,20.998214 411.390142,21 Z M411.390142,14.7431736 C411.01046,14.7373275 410.633313,14.8033338 410.280361,14.9374018 C409.953317,15.0866834 409.635572,15.2539546 409.32872,15.4383765 C409.306329,15.6580553 409.296532,15.8603205 409.296532,16.0465116 C409.296532,17.0520332 409.474265,17.8066208 409.829731,18.3102746 C410.186596,18.8152678 410.721194,19.0657552 411.432126,19.0657552 C412.143057,19.0657552 412.725237,18.8313419 413.126885,18.3638548 C413.51174,17.9164602 413.702068,17.3069856 413.702068,16.5327519 C413.702068,15.9366723 413.51174,15.4892777 413.126885,15.1932472 C412.742031,14.8972166 412.164049,14.7431736 411.390142,14.7431736 Z" id="Shape" fill="#484689"></path>
                <path d="M461.715552,10.2616049 C461.167121,10.2616049 460.145082,10.2371431 458.649435,10.1882196 C458.27614,10.1882196 457.719075,10.1683732 456.978241,10.1286805 C456.32703,10.069603 456.001014,9.71513796 456.000191,9.06528538 C455.994827,8.7757244 456.102518,8.49800897 456.294963,8.30512402 C456.490431,8.10102405 456.749648,7.99158406 457.016475,8.00050563 C457.634796,8.00050563 458.5631,8.02081352 459.801387,8.06142931 C461.039674,8.10204509 461.967978,8.12281453 462.5863,8.12373761 L463.931888,8.12373761 C464.173484,8.11881125 464.41269,8.17811915 464.629966,8.29681625 C464.856325,8.40531656 465.002303,8.65605752 465,8.93236099 C465,9.23697939 464.854437,9.59698294 464.559665,10.0165256 C464.312995,10.3225286 464.066324,10.6326855 463.819653,10.9400731 C463.14162,11.8093796 462.561677,12.76925 462.092958,13.7979475 C461.928511,14.1505664 461.489848,15.1830382 460.77697,16.8953628 C460.683235,17.1205958 460.475209,17.7372172 460.152893,18.7452272 C459.964706,19.3700234 459.71309,19.9684282 459.403014,20.5286294 C459.221767,20.8336127 458.912925,21.0116874 458.586534,20.9994033 C458.320445,21.0011246 458.063127,20.8926719 457.863789,20.6947849 C457.660477,20.5082552 457.543825,20.2279923 457.546817,19.9332389 C457.546817,19.697852 457.711264,19.1476927 458.040158,18.2827611 C458.5705,16.898132 459.097553,15.5107337 459.621317,14.1205661 C460.298017,12.5014732 460.996096,11.2151528 461.715552,10.2616049 Z" id="Path" fill="#484689"></path>
                <rect id="Rectangle" fill="#CDD3D8" x="185" y="26" width="303" height="1"></rect>
                <rect id="Rectangle" fill="#CDD3D8" x="106" y="43" width="382" height="1"></rect>
                <rect id="Rectangle" fill="#CDD3D8" x="106" y="77" width="382" height="1"></rect>
                <rect id="Rectangle" fill="#CDD3D8" x="106" y="111" width="382" height="1"></rect>
                <rect id="Rectangle" fill="#CDD3D8" x="106" y="145" width="382" height="1"></rect>
                <rect id="Rectangle" fill="#CDD3D8" x="106" y="179" width="382" height="1"></rect>
                <rect id="Rectangle" fill="#CDD3D8" x="184" y="0" width="1" height="211"></rect>
                <rect id="Rectangle" fill="#CDD3D8" x="209" y="26" width="1" height="185"></rect>
                <rect id="Rectangle" fill="#CDD3D8" x="259" y="26" width="1" height="185"></rect>
                <rect id="Rectangle" fill="#CDD3D8" x="312" y="26" width="1" height="185"></rect>
                <rect id="Rectangle" fill="#CDD3D8" x="363" y="26" width="1" height="185"></rect>
                <rect id="Rectangle" fill="#CDD3D8" x="408" y="26" width="1" height="185"></rect>
                <rect id="Rectangle" fill="#CDD3D8" x="459" y="26" width="1" height="185"></rect>
                <rect id="Rectangle" fill="#CDD3D8" x="233" y="0" width="1" height="211"></rect>
                <rect id="Rectangle" fill="#CDD3D8" x="286" y="0" width="1" height="211"></rect>
                <rect id="Rectangle" fill="#CDD3D8" x="335" y="0" width="1" height="211"></rect>
                <rect id="Rectangle" fill="#CDD3D8" x="386" y="0" width="1" height="211"></rect>
                <rect id="Rectangle" fill="#CDD3D8" x="435" y="0" width="1" height="211"></rect>
                <rect id="Rectangle" fill="#425BD9" x="121" y="51" width="49" height="17" rx="1.34"></rect>
                <rect id="Rectangle" fill="#425BD9" x="121" y="87" width="49" height="17" rx="1.34"></rect>
                <rect id="Rectangle" fill="#425BD9" x="121" y="119" width="49" height="17" rx="1.34"></rect>
                <rect id="Rectangle" fill="#425BD9" x="121" y="155" width="49" height="17" rx="1.34"></rect>
                <rect id="Rectangle" fill="#425BD9" x="121" y="189" width="49" height="17" rx="1.34"></rect>
                <rect id="Rectangle" fill="#484689" x="190" y="32" width="15" height="9" rx="0.88"></rect>
                <rect id="Rectangle" fill="#484689" x="213" y="32" width="15" height="9" rx="0.88"></rect>
                <rect id="Rectangle" fill="#484689" x="241" y="32" width="15" height="9" rx="0.88"></rect>
                <rect id="Rectangle" fill="#484689" x="264" y="32" width="15" height="9" rx="0.88"></rect>
                <rect id="Rectangle" fill="#484689" x="294" y="32" width="15" height="9" rx="0.88"></rect>
                <rect id="Rectangle" fill="#484689" x="318" y="32" width="15" height="9" rx="0.88"></rect>
                <rect id="Rectangle" fill="#484689" x="345" y="32" width="15" height="9" rx="0.88"></rect>
                <rect id="Rectangle" fill="#484689" x="369" y="32" width="15" height="9" rx="0.88"></rect>
                <rect id="Rectangle" fill="#484689" x="390" y="32" width="15" height="9" rx="0.88"></rect>
                <rect id="Rectangle" fill="#484689" x="414" y="32" width="15" height="9" rx="0.88"></rect>
                <rect id="Rectangle" fill="#484689" x="441" y="32" width="15" height="9" rx="0.88"></rect>
                <rect id="Rectangle" fill="#484689" x="465" y="32" width="15" height="9" rx="0.88"></rect>
                <path d="M190,59.4958903 C191.253256,61.5322974 192.379161,63.6488031 193.732272,65.4435566 C193.893889,65.6505457 194.070372,65.8469494 194.260492,66.0313994 C194.366387,66.1476815 194.495734,66.2431857 194.6411,66.3124236 C194.557132,66.2828424 194.464576,66.2828424 194.380608,66.3124236 C194.328509,66.324642 194.295224,66.3653702 194.295224,66.3490789 L194.295224,66.3490789 L194.344428,66.2744107 C194.489146,66.0639819 194.633864,65.8386195 194.778582,65.5847475 C195.357453,64.6072721 195.945007,63.5768501 196.515195,62.5491433 C197.703329,60.5127362 198.905933,58.4627531 200.277858,56.4982991 C201.649783,54.5338451 203.094067,52.5707487 205,51 C203.782923,53.0581287 202.782923,55.1610585 201.683068,57.2449817 C200.615051,59.336598 199.499759,61.4119231 198.337192,63.4709569 C197.726483,64.4918757 197.140376,65.5155096 196.455861,66.537786 C196.287988,66.7875852 196.092619,67.0496029 195.87699,67.3156935 L195.793054,67.420229 L195.626628,67.5844992 C195.496944,67.7087842 195.343217,67.8087651 195.173661,67.8790994 C194.976346,67.9607928 194.7627,68.0019882 194.547033,68 C194.364155,67.9898295 194.184265,67.9517677 194.014472,67.8872451 C193.596848,67.7034576 193.235827,67.4231742 192.965268,67.0726822 C192.75769,66.8101504 192.569133,66.5348428 192.400868,66.2486162 C191.137482,64.075091 190.467438,61.8214672 190,59.4958903 Z" id="Path" fill="#FF662A"></path>
                <path d="M241,95.4930515 C242.253256,97.5236148 243.379161,99.6478963 244.732272,101.443485 C244.893889,101.65057 245.070372,101.847065 245.260492,102.031601 C245.365703,102.148251 245.495228,102.243469 245.6411,102.311398 C245.556016,102.285508 245.464029,102.287906 245.380608,102.318189 C245.328509,102.331771 245.295224,102.372518 245.295224,102.356219 L245.295224,102.356219 L245.344428,102.281516 C245.489146,102.07099 245.633864,101.845523 245.778582,101.591532 C246.357453,100.612244 246.945007,99.582701 247.515195,98.5545161 C248.703329,96.5171617 249.905933,94.4662249 251.277858,92.500857 C252.649783,90.5354891 254.095514,88.5714794 256,87 C254.78437,89.057728 253.782923,91.1629942 252.683068,93.2478869 C251.615051,95.3413818 250.499759,97.4176723 249.337192,99.4767585 C248.726483,100.498152 248.140376,101.522262 247.455861,102.545014 C247.286541,102.79493 247.091172,103.057069 246.87699,103.323284 L246.793054,103.427868 L246.628075,103.592214 C246.341916,103.860581 245.951477,104.007747 245.547033,103.999685 C245.36396,103.990902 245.183838,103.952774 245.014472,103.886952 C244.596539,103.703536 244.235405,103.423035 243.965268,103.07201 C243.758011,102.809148 243.569468,102.533733 243.400868,102.247561 C242.137482,100.077099 241.467438,97.8224267 241,95.4930515 Z" id="Path" fill="#FF662A"></path>
                <path d="M213,127.49589 C214.253256,129.532297 215.379161,131.648802 216.732272,133.443556 C216.893843,133.650194 217.069818,133.84657 217.259045,134.031398 C217.365582,134.147052 217.494788,134.242452 217.639653,134.312423 C217.555709,134.282717 217.463104,134.282717 217.379161,134.312423 C217.328509,134.324641 217.295224,134.365369 217.295224,134.349078 L217.295224,134.349078 L217.344428,134.27441 C217.489146,134.063981 217.633864,133.838619 217.778582,133.584747 C218.357453,132.607271 218.945007,131.576849 219.515195,130.549143 C220.703329,128.512736 221.905933,126.46411 223.277858,124.498299 C224.649783,122.532487 226.094067,120.570749 228,119 C226.782923,121.058129 225.782923,123.161058 224.683068,125.244981 C223.615051,127.337503 222.499759,129.412827 221.337192,131.470956 C220.725036,132.491875 220.138929,133.516866 219.455861,134.537785 C219.287988,134.787584 219.092619,135.049602 218.87699,135.315692 L218.791606,135.420228 L218.626628,135.584498 C218.496379,135.708772 218.342182,135.80874 218.172214,135.879098 C217.975413,135.960803 217.762234,136.002003 217.547033,136 C217.364155,135.989828 217.184265,135.951767 217.014472,135.887244 C216.596608,135.703812 216.235499,135.423461 215.965268,135.072681 C215.757191,134.810474 215.568611,134.535133 215.400868,134.248615 C214.137482,132.076448 213.467438,129.822824 213,127.49589 Z" id="Path" fill="#FF662A"></path>
                <path d="M345,95.4930653 C346.255188,97.5236319 347.380079,99.6479169 348.735161,101.443508 C348.896357,101.650564 349.072425,101.847059 349.262137,102.031625 C349.367389,102.148276 349.496963,102.243493 349.642892,102.311423 C349.557792,102.285421 349.465728,102.28782 349.382299,102.318214 C349.33018,102.331796 349.296883,102.372543 349.296883,102.356244 L349.296883,102.356244 L349.346106,102.281541 C349.490879,102.071014 349.635653,101.845547 349.773188,101.591556 C350.352283,100.612266 350.941511,99.5827214 351.510472,98.5545349 C352.699064,96.5171772 353.902133,94.466237 355.274587,92.5008659 C356.647042,90.5354948 358.093331,88.5714819 360,87 C358.782453,89.0577313 357.78062,91.163001 356.68034,93.2478971 C355.61191,95.3413954 354.496188,97.4176893 353.333172,99.4767788 C352.722228,100.498174 352.135894,101.522286 351.451115,102.54504 C351.28173,102.794955 351.086285,103.057096 350.87202,103.32331 L350.788051,103.427895 L350.623009,103.592241 C350.337091,103.860265 349.947099,104.007403 349.542998,103.999713 C349.359386,103.990924 349.178721,103.952799 349.008783,103.886979 C348.590929,103.703207 348.229744,103.422774 347.959174,103.072036 C347.751837,102.809174 347.563221,102.533758 347.394557,102.247585 C346.139369,100.07712 345.467619,97.8224444 345,95.4930653 Z" id="Path" fill="#FF662A"></path>
                <path d="M465,95.4930653 C466.254582,97.5236319 467.378931,99.6479169 468.733359,101.443508 C468.894478,101.650564 469.070461,101.847059 469.260081,102.031625 C469.365618,102.147948 469.495053,102.243109 469.640652,102.311423 C469.555594,102.285421 469.463574,102.28782 469.380185,102.318214 C469.328092,102.331796 469.29481,102.372543 469.29481,102.356244 L469.29481,102.356244 L469.344009,102.281541 C469.488713,102.071014 469.633417,101.845547 469.778121,101.591556 C470.356936,100.612266 470.945881,99.5827214 471.514567,98.5545349 C472.702585,96.5171772 473.905074,94.466237 475.276867,92.5008659 C476.648659,90.5354948 478.09425,88.5714819 480,87 C478.783041,89.0577313 477.78169,91.163001 476.681941,93.2478971 C475.614027,95.3413954 474.499325,97.4176893 473.337835,99.4767788 C472.725738,100.498174 472.139687,101.522286 471.456685,102.54504 C471.287382,102.794955 471.092032,103.057096 470.87787,103.32331 L470.793942,103.427895 L470.628979,103.592241 C470.343199,103.860265 469.953395,104.007403 469.549489,103.999713 C469.365966,103.990924 469.185387,103.952799 469.015532,103.886979 C468.59788,103.703207 468.236868,103.422774 467.966429,103.072036 C467.759192,102.809174 467.570667,102.533758 467.402084,102.247585 C466.138819,100.07712 465.467393,97.8224444 465,95.4930653 Z" id="Path" fill="#FF662A"></path>
                <path d="M294,59.4958898 C295.254582,61.5322967 296.378931,63.6488023 297.733359,65.4435556 C297.894914,65.6501935 298.070873,65.8465705 298.260081,66.0313984 C298.366279,66.1473743 298.495544,66.2428272 298.640652,66.3124226 C298.556716,66.2827175 298.464121,66.2827175 298.380185,66.3124226 C298.329539,66.324641 298.29481,66.3653692 298.296257,66.3490779 L298.296257,66.3490779 L298.345456,66.2744097 C298.49016,66.0639809 298.634864,65.8386186 298.779568,65.5847465 C299.358383,64.6072712 299.945881,63.5768493 300.516014,62.5491426 C301.704032,60.5127356 302.906521,58.4627526 304.278314,56.4982987 C305.650106,54.5338448 307.09425,52.5707486 309,51 C307.783041,53.0581286 306.78169,55.1610582 305.683388,57.2449813 C304.614509,59.3365975 303.499325,61.4119224 302.337835,63.4709561 C301.725738,64.4918748 301.139687,65.5155087 300.456685,66.537785 C300.287382,66.7875842 300.093479,67.0496019 299.87787,67.3156924 L299.793942,67.420228 L299.628979,67.5844981 C299.498743,67.7087723 299.34456,67.8087396 299.174609,67.8790983 C298.977827,67.9608027 298.764669,68.002003 298.549489,68 C298.366628,67.9898284 298.186755,67.9517666 298.016979,67.887244 C297.599155,67.7038118 297.238081,67.4234607 296.967876,67.0726812 C296.759367,66.8104851 296.570324,66.5351469 296.402084,66.2486152 C295.138819,64.0750902 294.46884,61.8214665 294,59.4958898 Z" id="Path" fill="#FF662A"></path>
                <path d="M414,59.4958898 C415.254582,61.5322967 416.378931,63.6488023 417.733359,65.4435556 C417.894914,65.6501935 418.070873,65.8465705 418.260081,66.0313984 C418.366279,66.1473743 418.495544,66.2428272 418.640652,66.3124226 C418.556716,66.2827175 418.464121,66.2827175 418.380185,66.3124226 C418.329539,66.324641 418.29481,66.3653692 418.296257,66.3490779 L418.296257,66.3490779 L418.345456,66.2744097 C418.49016,66.0639809 418.634864,65.8386186 418.779568,65.5847465 C419.358383,64.6072712 419.945881,63.5768493 420.516014,62.5491426 C421.704032,60.5127356 422.906521,58.4627526 424.278314,56.4982987 C425.650106,54.5338448 427.09425,52.5707486 429,51 C427.783041,53.0581286 426.78169,55.1610582 425.683388,57.2449813 C424.614509,59.3365975 423.499325,61.4119224 422.337835,63.4709561 C421.725738,64.4918748 421.139687,65.5155087 420.456685,66.537785 C420.287382,66.7875842 420.093479,67.0496019 419.87787,67.3156924 L419.793942,67.420228 L419.628979,67.5844981 C419.498743,67.7087723 419.34456,67.8087396 419.174609,67.8790983 C418.977827,67.9608027 418.764669,68.002003 418.549489,68 C418.366628,67.9898284 418.186755,67.9517666 418.016979,67.887244 C417.599155,67.7038118 417.238081,67.4234607 416.967876,67.0726812 C416.759367,66.8104851 416.570324,66.5351469 416.402084,66.2486152 C415.138819,64.0750902 414.476076,61.8214665 414,59.4958898 Z" id="Path" fill="#FF662A"></path>
                <path d="M329,162.520697 C328.921645,164.208789 326.027417,168.358397 322.561709,173.158008 C321.083225,175.214985 319.496992,177.400865 318.003505,179.552463 C315.708035,182.805228 313.629429,185.997656 312.397813,188.579847 C312.129739,189.12856 311.892944,189.692169 311.688577,190.267939 C311.143011,191.801072 309.702717,195.594137 307.453621,200.720122 C306.468874,202.99651 305.313638,205.519734 304.019282,208.229458 C304.010997,208.229458 304.004279,208.236211 304.004279,208.244542 C299.366968,217.923302 292.83927,229.985413 284.815357,240.807852 C284.783987,240.839392 284.768984,240.886017 284.722611,240.916186 C281.908172,244.738793 278.863678,248.384628 275.606202,251.833246 L275.589835,251.863415 C266.88942,260.999133 256.939659,267.843379 246.067891,269.279149 C209.399032,274.125386 196.092676,253.625558 211.000269,235.059288 C213.648992,231.776353 216.852829,229.469797 220.411283,227.82833 C221.830583,227.17784 223.291929,226.624399 224.785359,226.171778 C227.972829,225.1954 231.345791,224.576936 234.8115,224.127144 C249.195349,222.332089 265.258178,223.477139 275.637572,214.202918 C281.536505,208.937058 286.664826,201.536056 291.049813,193.54676 L291.049813,193.500135 C292.496927,190.867205 293.867662,188.173937 295.141559,185.464213 C295.743045,184.230027 296.313162,182.971158 296.881914,181.731487 C297.59115,180.1531 298.252649,178.604882 298.899145,177.069006 C302.288474,169.063254 304.900372,161.522378 306.809853,156.026137 C307.287223,154.663047 307.718675,153.42429 308.104208,152.309866 C308.412453,151.426737 308.735701,150.54498 309.073952,149.693392 C313.416658,138.126327 318.175358,130.290618 320.409451,132.320168 C323.457801,131.668793 312.53966,154.535515 313.739906,155.994597 C314.940151,157.453679 329.107138,158.757802 329,162.520697 Z" id="Path" fill="#E2E2E2"></path>
                <path d="M292,192 C291.158269,195.846297 288.988288,202.418478 283.513579,211.696048 C274.597308,226.792936 244.720684,233.634289 235,222.482077 C249.567895,220.68395 265.855189,221.824859 276.374758,212.585547 C282.340131,207.346931 287.541174,199.963133 292,192 Z" id="Path" fill="#E2E2E2"></path>
                <path d="M308.181946,154 C308.5811,154.871523 309,156.283471 309,158.335722 C309,161.954525 303.313117,172.716529 300,175 C303.492243,167.007167 306.205924,159.497296 308.181946,154 Z" id="Path" fill="#D0D0D0"></path>
                <path d="M325.853793,164.689026 C327.807814,158.25393 312.623141,159.393393 312.398673,157.132228 C312.174205,154.871064 319.666539,137.803714 318.97443,136.199722 C318.398871,134.83346 314.414567,140.981641 309,149.632814 C313.580007,138.113856 318.607511,130.305666 320.96874,132.315438 C324.184673,131.677394 312.66343,154.465284 313.918148,155.914889 C315.172865,157.364493 330.12156,158.65971 329.999254,162.408734 C329.918675,164.090603 326.865337,168.226279 323.220613,173 C323.919916,170.333056 325.059522,167.298587 325.853793,164.689026 Z" id="Path" fill="#D0D0D0"></path>
                <path d="M318,179 C315.704602,182.236671 313.62606,185.413302 312.394483,187.982716 C312.126417,188.528714 311.889629,189.089534 311.685269,189.662456 C311.13972,191.188003 309.69947,194.962299 307.450443,200.062921 C306.465727,202.328045 305.310527,204.838784 304.016212,207.5351 C304.012233,207.5351 304.008417,207.536682 304.005603,207.539497 C304.00279,207.542312 304.001209,207.546129 304.001209,207.55011 C299.364041,217.18098 292.836546,229.183406 284.812882,239.952295 C284.781513,239.98368 284.76651,240.030074 284.720138,240.060093 C281.905787,243.863786 278.861387,247.491582 275.604012,250.923135 L275.587646,250.953155 C266.887501,260.043669 256.938048,266.85405 246.066618,268.282716 C209.398896,273.104973 196.092952,252.706579 211.000083,234.232176 C213.648724,230.965485 216.852461,228.670342 220.410806,227.036997 C222.674834,245.52641 252.165857,244.478449 270.338099,238.669635 C290.096525,232.368224 306.435722,196.760753 309.084363,188.671805 C310.530068,184.22343 314.61214,181.003133 318,179 Z" id="Path" fill="#D0D0D0"></path>
                <path d="M196,389.712157 C195.999233,393.18506 193.167928,396 189.675601,396 L189.324399,396 C185.832072,396 183.000767,393.18506 183,389.712157 L183,344.289223 C183,340.815781 185.83153,338 189.324399,338 L189.675601,338 C193.16847,338 196,340.815781 196,344.289223 L196,389.712157 Z" id="Path" fill="#2B2847"></path>
                <rect id="Rectangle" fill="#2B2847" x="175" y="345" width="9" height="45" rx="4.5"></rect>
                <path d="M271,367.5 C271,370.537566 268.443831,373 265.290636,373 L176.709364,373 C175.195146,373 173.742947,372.420537 172.672234,371.389087 C171.601521,370.357637 171,368.958691 171,367.5 L171,367.5 C171,366.041309 171.601521,364.642363 172.672234,363.610913 C173.742947,362.579463 175.195146,362 176.709364,362 L265.290636,362 C266.804965,361.999651 268.257374,362.579001 269.328166,363.610527 C270.398959,364.642053 271,366.041202 271,367.5 L271,367.5 Z" id="Path" fill="#2B2847"></path>
                <path d="M253.318133,338 L253.669372,338 C255.347127,337.998537 256.95673,338.660061 258.143993,339.839006 C259.331256,341.017952 259.998896,342.617718 260,344.286281 L260,389.71096 C260,391.378917 259.333756,392.978559 258.147835,394.157983 C256.961914,395.337407 255.353459,396 253.676314,396 L253.323686,396 C251.646541,396 250.038086,395.337407 248.852165,394.157983 C247.666244,392.978559 247,391.378917 247,389.71096 L247,344.286281 C247.002295,340.816489 249.829228,338.00381 253.318133,338 L253.318133,338 Z" id="Path" fill="#2B2847"></path>
                <path d="M258,349.880045 C258,347.184871 259.959837,345 262.377418,345 L262.622582,345 C265.040163,345 267,347.184871 267,349.880045 L267,385.119955 C267,387.815129 265.040163,390 262.622582,390 L262.377418,390 C259.959837,390 258,387.815129 258,385.119955 L258,349.880045 Z" id="Path" fill="#2B2847"></path>
                <path d="M279,508.273991 C274.415716,508.447724 269.946251,508.587525 265.591603,508.693394 C261.3738,508.796548 257.282062,508.872103 253.31639,508.920061 C248.13271,508.985211 243.186632,509.008285 238.521742,508.997426 C236.623731,508.997426 234.772584,508.989735 232.968301,508.974353 C231.022488,508.95897 229.134786,508.939968 227.305197,508.917346 C226.769536,508.883414 226.232469,508.848125 225.69962,508.811478 C225.199107,508.778903 224.700001,508.743613 224.2023,508.709681 C224.188241,507.534269 224.15731,505.153583 224.123568,502.041319 C224.084201,498.364423 224.042023,493.664131 224.016717,488.726313 L224.016717,488.332699 C224.016717,487.565378 224.013436,486.793985 224.006875,486.018521 C223.987192,479.719341 224.006875,473.260002 224.103884,468.213601 L224.103884,468.187813 C224.130597,467.150844 224.155904,466.164094 224.182617,465.254711 C224.19527,464.786446 224.20933,464.33854 224.221983,463.912352 L233.560199,462.772229 L240.412724,461.934781 L240.553317,461.917137 L248.044136,461.014539 L248.044136,461.014539 L253.710052,460.322322 L253.710052,460.322322 L261.123544,459.421082 L261.123544,459.421082 L272.677513,458 L273.332678,463.222849 L273.332678,463.230993 L279,508.273991 Z" id="Path" fill="#FEA996"></path>
                <path d="M277,508.578072 C272.620002,508.752851 268.349705,508.893494 264.18911,509 C256.743292,495.696305 257.365232,479.970281 259.165231,465.264257 C259.405679,463.299357 259.667619,461.350843 259.933589,459.429639 L259.933589,459.429639 L270.972689,458 L271.598659,463.254297 L271.598659,463.26249 L277,508.578072 Z" id="Path" fill="#FFC9C0"></path>
                <path d="M252,460 C251.929794,460.724228 251.859589,461.330939 251.805279,461.833799 C251.805279,461.86796 251.797331,461.900756 251.793357,461.932184 C251.705931,462.615418 251.588038,463.360142 251.448952,464.164992 C251.433056,464.257911 251.415836,464.350831 251.398615,464.446484 C251.327085,464.856424 251.248932,465.293693 251.16548,465.739162 C249.387819,475.365922 245.719903,491.736197 251.621154,508.91952 C246.737223,508.985111 242.077155,509.008341 237.682015,508.997409 C235.893757,508.997409 234.149653,508.989666 232.449704,508.974179 C230.616409,508.958692 228.837865,508.939562 227.114072,508.916787 C226.609386,508.882626 226.103375,508.847098 225.601339,508.810203 C225.129768,508.777408 224.659523,508.74188 224.190602,508.707718 C224.177355,507.524358 224.148213,505.127574 224.116422,501.994265 C224.079332,498.292506 224.039593,493.560431 224.01575,488.589224 L224.01575,488.192948 C224.01575,487.420439 224.012659,486.64383 224.006477,485.863122 C223.987933,479.521348 224.006477,473.018332 224.097877,467.937807 L224.097877,467.911844 C224.123045,466.867863 224.146889,465.874442 224.172057,464.958909 C224.183979,464.487478 224.197225,464.036544 224.209147,463.607473 L233.007376,462.459641 L239.463649,461.616531 L239.596113,461.598766 L246.653771,460.690066 L246.653771,460.690066 L252,460 Z" id="Path" fill="#F98F7D"></path>
                <path d="M278.860182,460.4024 C276.501093,462.281806 268.186875,463.811905 258.673978,464.994068 C256.295754,465.284472 253.839622,465.557068 251.364355,465.807746 C238.352461,467.14607 225.3392,467.881668 223.345045,468 C220.231485,468.192619 222.725887,415.232281 228.739787,387.171329 C230.189957,380.42766 231.832846,375.116832 233.669819,372.347037 C241.675141,360.236377 254.532587,368.664936 258.246171,371.514181 C258.922735,372.018278 259.290403,372.347037 259.290403,372.347037 C260.39204,374.982589 261.939253,379.420836 263.698319,384.949466 C264.510195,387.48776 265.361709,390.239747 266.230991,393.146525 C273.909649,418.815755 283.2886,456.831255 278.860182,460.4024 Z" id="Path" fill="#FF4F00"></path>
                <path d="M279.877593,459.399028 C277.55457,461.282242 269.367462,462.815442 260,464 C260.932709,456.272233 262.189779,448.816242 262.798126,442.135774 C264.760447,420.698427 265.331109,397.397083 267.444171,392 C275.002744,417.72811 284.238308,455.820646 279.877593,459.399028 Z" id="Path" fill="#FF662A"></path>
                <path d="M263,383.924229 C255.871046,395.968455 252.734575,452.284845 251.517076,461.917729 C251.365225,463.035349 251.156933,464.330457 250.8707,465.780867 C238.077553,467.135599 225.283063,467.880217 223.322433,468 C220.261216,468.194981 222.713683,414.585283 228.626482,386.180268 C233.77868,375.744528 238.740056,369.173312 241.687048,368.486933 C246.344721,367.388725 252.694261,368.209608 257.636823,370.331144 C258.302013,370.841422 258.6635,371.174212 258.6635,371.174212 C259.749305,373.840692 261.270506,378.333357 263,383.924229 Z" id="Path" fill="#E54405"></path>
                <path d="M241,460 L240.963959,460.818264 L240.811479,464.362224 L240.743556,466.137677 L240.743556,466.200193 L240.604938,469.673301 L240.573055,469.719146 L238.95122,509 C237.079872,509 235.25473,508.992128 233.475794,508.976383 C231.557316,508.960638 229.696133,508.941189 227.892246,508.918035 L226.330017,508.897196 C220.911424,508.815231 216.072256,508.695756 211.901229,508.566556 C203.01995,508.288707 197.207681,507.967792 195.45,507.863599 L194.884437,507.827479 C194.815299,507.829774 194.746107,507.82512 194.677895,507.813586 C193.568948,507.76913 192.460001,507.709393 191.362144,507.649656 C191.035004,507.634374 190.707865,507.620481 190.380725,507.589918 L187.746976,507.450994 C185.978206,507.3468 184.209435,507.227326 182.469774,507.092569 C181.798861,507.045335 181.127948,506.995322 180.461194,506.945309 C180.018539,506.861955 179.577733,506.780915 179.138775,506.702192 C179.059762,499.535085 178.965502,487.565365 179.012632,477.683678 C179.012632,477.039069 179.02788,476.41252 179.02788,475.801253 C179.02788,475.392816 179.043128,474.99966 179.043128,474.607893 C179.059762,473.981344 179.059762,473.368688 179.07501,472.789374 C179.07501,472.035015 179.091644,471.313997 179.106892,470.655496 C179.131844,469.382949 179.166498,468.200703 179.195608,467.135154 C179.203925,466.873976 179.210856,466.619744 179.215015,466.373848 L195.796546,464.670636 L202.034373,464.028806 L202.907669,463.938505 L220.876769,462.089422 L220.905879,462.089422 L223.284571,461.839358 L223.431506,461.824076 L233.491042,460.780755 L241,460 Z" id="Path" fill="#FEA996"></path>
                <path d="M241,460 L240.96241,460.818264 L240.803374,464.362224 L240.732531,466.137677 L240.732531,466.200193 L240.587953,469.673301 L240.5547,469.719146 L238.863139,509 C236.911337,509 235.007728,508.992128 233.152312,508.976383 C231.151354,508.960638 229.210154,508.941189 227.328714,508.918035 L225.699321,508.897196 C225.690646,508.867559 225.683417,508.838385 225.677634,508.809674 C225.092576,506.511865 224.552336,504.202017 224.056916,501.880128 C223.068003,497.255337 222.258367,492.611097 221.629453,488.019648 C221.567285,487.558419 221.505116,487.09719 221.445839,486.630405 C221.300297,485.506044 221.165358,484.387703 221.041021,483.275382 C220.43524,477.804542 220.094036,472.451788 220.01741,467.350486 C220.001024,466.372459 219.996205,465.403693 220.002952,464.444189 C220.002952,464.060758 220.006325,463.678716 220.013072,463.298064 L220.013072,463.282782 C220.013072,462.877123 220.024638,462.475632 220.034759,462.07414 L222.515716,461.824076 L222.668968,461.808795 L233.168215,460.780755 L241,460 Z" id="Path" fill="#FFC9C0"></path>
                <path d="M211,509 C202.378664,508.727848 196.736514,508.413513 195.030278,508.311456 L194.481268,508.276076 C194.414154,508.278324 194.346987,508.273765 194.280772,508.262468 C193.204282,508.218924 192.127793,508.160411 191.062068,508.101899 C190.744504,508.08693 190.426939,508.073323 190.109375,508.043386 L187.552712,507.90731 C185.835711,507.805253 184.118711,507.688228 182.429968,507.556234 C181.778691,507.509968 181.127415,507.460981 180.480176,507.411994 C179.990373,507.375253 179.503262,507.335791 179.01615,507.29769 C178.985201,498.575222 178.993275,485.819462 179.088813,476.906487 C179.088813,476.506424 179.103615,476.121329 179.103615,475.737595 C179.119762,475.123892 179.119762,474.523797 179.134564,473.956361 C179.134564,473.217468 179.150711,472.511234 179.165513,471.866234 C179.189734,470.619778 179.223374,469.461772 179.251632,468.41807 C179.259706,468.162247 179.266434,467.913228 179.270471,467.672373 L195.362644,466 C196.989489,467.261424 198.298769,467.869684 199.299904,468.135032 C200.987302,468.585443 201.806779,468.068354 201.806779,468.068354 C201.822927,468.283354 201.841765,468.502437 201.861949,468.724241 C202.044953,470.724557 202.369245,472.961646 202.791767,475.347057 C203.679871,480.338323 205.006644,485.982753 206.404735,491.492468 C208.035617,497.928861 209.762037,504.18019 211,509 Z" id="Path" fill="#F98F7D"></path>
                <path d="M258,373.729572 C257.784794,375.395799 257.530962,377.392257 257.257817,379.680578 C257.082617,381.172782 256.906039,382.762275 256.730839,384.468239 C256.028662,390.67137 255.228539,398.192685 254.385651,406.118223 C251.652816,431.763863 248.453703,461.613436 246.754131,464.793792 C245.700176,466.751882 234.186679,467.605549 220.584585,467.896043 C214.90509,467.993331 208.875197,468.012514 203.078442,467.993331 C188.593454,467.953593 175.659049,467.582255 173.668398,467.582255 C168.886972,467.561701 163.110911,386.631867 175.132072,370.157325 C186.06065,355.211984 241.660933,363.954193 255.243714,371.494691 C256.634273,372.255181 257.569589,373.01156 258,373.729572 Z" id="Path" fill="#FF4F00"></path>
                <path d="M258,383.263755 C257.600724,383.688436 257.176936,384.089708 256.730781,384.465542 C244.807018,394.778708 215.882615,393.441258 206.007537,406.52799 C195.89793,419.923048 202.885534,466.739289 203.080055,468 C188.594401,467.96026 175.659401,467.588898 173.668659,467.588898 C168.887013,467.568343 163.110686,386.633417 175.1324,370.157838 C186.061481,355.211557 241.664321,363.954316 255.247726,371.495289 C256.126522,374.712843 256.809417,377.582332 257.257783,379.676209 C257.746156,381.905749 258,383.263755 258,383.263755 Z" id="Path" fill="#E54405"></path>
                <path d="M254,405 C251.259102,430.737873 248.05055,460.694799 246.345964,463.886592 C245.288899,465.851725 233.741432,466.708462 220.099205,467 C219.198486,441.572918 224.443687,420.407519 235.327029,413.909793 C242.415176,409.687989 248.734045,406.867495 254,405 Z" id="Path" fill="#FF662A"></path>
                <path d="M269.265572,380.927157 C260.873005,385.883693 246.512084,382.487369 233.393538,378.467512 C223.564603,375.482278 214.437342,372.121821 209.006938,371.695556 C207.547182,371.578299 205.75585,371.870752 203.712742,372.457039 C187.985621,376.965239 157.973249,398.958576 162.450202,385.922319 C167.510508,371.187901 172.081017,328.059274 183.216991,284.716825 C186.293349,272.715192 189.990206,262.039256 193.810888,252.243441 C197.509121,253.726401 204.404784,254.467191 204.827164,254.467191 C205.33347,254.467191 210.549244,236.6896 221.352267,231.791002 C222.137427,231.431067 222.951047,231.137143 223.784736,230.912262 C227.793907,229.800387 232.718005,229.781074 237.505896,230.444612 C242.255264,231.108151 246.868424,232.454541 250.352027,234.054759 C250.936755,236.162632 251.500846,238.347757 252.003024,240.651518 C253.831503,248.945061 255.038107,258.605686 254.805591,270.334178 C254.765692,273.782923 254.5717,277.437213 254.240125,281.301187 C250.365786,326.439743 283.940183,372.203211 269.265572,380.927157 Z" id="Path" fill="#232C33"></path>
                <path d="M251,236.420706 C247.488125,234.806316 242.816722,233.448002 238.049616,232.778587 C235.645183,232.439902 233.217562,232.295164 230.790077,232.345764 C227.454351,232.4237 224.315578,232.974819 221.764892,234.117417 C210.876971,239.078882 205.616094,257 205.105679,257 C204.674324,257 197.728246,256.272133 194,254.773256 C203.968342,228.941628 214.641279,209.273908 216.46934,187.951438 C216.46934,187.951438 237.189678,181.730471 239.976153,201.103147 C240.392252,204.036883 241.11349,206.930259 242.016425,209.902963 C242.467199,211.360089 242.958195,212.817215 243.488028,214.313309 C245.761315,220.815403 248.646267,227.875574 251,236.420706 Z" id="Path" fill="#D0D0D0"></path>
                <path d="M224.192467,218.219123 C227.586557,222.527112 225.498512,227.640716 230.011294,231.489914 C226.74618,231.56638 223.67385,232.107097 221.177157,233.22813 C210.519715,238.095953 208.619024,251.469153 204.870591,255.67883 C201.826771,259.100644 197.649326,254.964701 194,253.494113 C203.75733,228.150028 214.204339,208.853513 215.993703,187.933481 C215.993703,187.933481 236.275427,181.829927 239.002917,200.836967 C239.410208,203.715332 240.116179,206.554099 241,209.470696 C236.966464,211.382324 227.344897,211.655413 222.715359,209.470696 C217.200641,206.861324 220.081545,213.042709 224.192467,218.219123 Z" id="Path" fill="#E2E2E2"></path>
                <path d="M251,236 C247.489374,234.32064 242.819631,232.90766 238.05422,232.211305 C235.87741,229.508403 234.230244,226.026626 234.01395,222.585384 C233.660391,216.911752 240.114564,219.307736 243.487926,213 C245.763178,219.766665 248.647104,227.110971 251,236 Z" id="Path" fill="#C1C1C1"></path>
                <path d="M252,241 C248.718216,240.756724 246.382827,237.128261 242.537476,235.734288 C240.644687,235.045817 238.672201,233.702933 237,232 C241.912713,232.585079 246.684535,233.772267 250.287951,235.183268 C250.892789,237.035816 251.476281,238.962563 252,241 Z" id="Path" fill="#425BD9"></path>
                <path d="M210.566014,284.821522 C211.638178,298.970193 221.541222,314.165595 219.748311,318.114125 C217.9554,322.062655 202.865178,332.068246 199.122252,349.028293 C197.660085,355.637491 200.447986,364.126419 203.781616,372.576986 C188.028527,377.054362 157.9666,398.897323 162.450946,385.9502 C167.519606,371.316526 172.097663,328.482784 183.252024,285.436682 C186.333461,273.517108 190.036422,262.914168 193.863413,253.18533 C197.567752,254.658151 204.474802,255.393876 204.897879,255.393876 C205.405021,255.393876 210.629407,237.737836 221.450268,232.872732 C222.236723,232.515258 223.051687,232.223343 223.886753,232 C220.338139,236.865104 229.423968,235.896468 227.804698,238.318744 C226.185428,240.741021 227.990742,241.684996 227.990742,241.684996 C227.990742,241.684996 209.493851,270.692032 210.566014,284.821522 Z" id="Path" fill="#232C33"></path>
                <path d="M267.31316,382.534763 C259.027519,387.488752 244.849566,384.094173 231.898159,380.076382 C237.105888,360.512744 229.189706,349.960871 231.399663,334.162705 C234.032051,315.106462 245.580332,306.449045 248.212721,297.844022 C249.384935,294.039943 250.922533,283.039964 253.03605,272 C252.99666,275.446973 252.805139,279.099385 252.477788,282.961373 C248.654169,328.075352 281.800806,373.815301 267.31316,382.534763 Z" id="Path" fill="#425BD9"></path>
                <path d="M249.898977,281.440356 C249.860171,282.143994 249.821365,282.865569 249.760385,283.607839 C248.643335,301.251234 242.83911,326 230.938233,326 C225.193603,326 220.861223,321.218016 217.665296,314.30856 C217.110929,313.117893 216.606455,311.86928 216.140786,310.583414 C210.023344,294.363853 208.728897,270.318725 209.0435,263.916993 C209.0435,263.916993 220.022743,261.906794 230.550176,262.003372 C239.608536,262.082014 248.332889,263.721078 249.431922,269.518509 C249.588531,270.357357 249.725737,271.332793 249.824137,272.446198 C250.030213,275.440045 250.055205,278.443521 249.898977,281.440356 Z" id="Path" fill="#B0B0B0"></path>
                <path d="M249,281 C248.681063,288.067907 247.743125,295.09319 246.197231,301.993121 C243.745324,312.755108 239.676699,322.433094 233.701036,325.191864 C232.601311,325.725863 231.3969,326.002078 230.17728,326 C224.474051,326 220.172894,321.170748 217,314.193012 C220.3669,312.419319 224.552479,311.020427 228.736681,310.054858 C238.606226,307.768424 244.503461,292.255222 249,281 Z" id="Path" fill="#A4A4A4"></path>
                <path d="M249.90175,281.610442 C249.863363,282.3201 249.824975,283.047847 249.764652,283.796466 C228.240366,290.016404 216.244346,280.056153 215.642489,280.665624 C215.094099,281.222218 212.818283,294.249302 216.50346,311 C210.451982,294.641701 208.724556,269.910835 209.034396,263.452953 C209.034396,263.452953 220.343557,261.907013 230.757473,262.004417 C237.894762,265.115778 245.12939,268.914532 249.823604,272.536568 C250.028939,275.556864 250.055035,278.586964 249.90175,281.610442 Z" id="Path" fill="#C1C1C1"></path>
                <path d="M247,303 C244.44924,313.66979 240.216582,323.264865 234,326 C237.239264,315.609249 243.192469,308.822523 247,303 Z" id="Path" fill="#EBEBEB"></path>
                <path d="M262.906066,174.96349 C262.24653,175.976012 261.445003,176.891172 260.525383,177.681684 C258.656436,179.390852 257.318692,180.290052 257.948628,185.178683 C258.007032,185.703102 258.105764,186.3044 258.226745,186.945509 C259.54502,194.130876 255.373263,206.714193 243.0193,208.715772 C242.999832,208.715772 242.999832,208.715772 242.980363,208.736364 C240.186677,209.182532 236.960518,209.085062 233.282419,208.269604 C226.49497,206.759496 221.537532,204.734579 217.89837,202.462553 C210.835585,198.035191 208.731629,192.61665 207.925089,187.955908 C207.767953,187.04298 207.609426,185.644071 207.471758,183.915684 C207.374417,182.680141 207.275686,181.274368 207.193641,179.740922 C206.922637,174.312511 206.936098,168.873898 207.233968,163.446859 C207.449509,159.640015 207.843045,155.87161 208.453512,152.493087 L212.525146,149.424822 L226.70912,143.796239 L240.990435,143 L250.197503,143.660329 C251.11368,144.661625 251.870025,145.794846 252.440518,147.021005 C252.579576,147.331264 252.735322,147.660742 252.857694,147.991593 C253.257423,149.031829 253.566785,150.103752 253.782433,151.195767 C253.959893,152.165904 254.084299,153.144774 254.15511,154.128121 C254.529178,159.449192 253.427834,163.682985 257.02806,165.385288 C262.134291,167.816562 265.973698,170.282156 262.906066,174.96349 Z" id="Path" fill="#E2E2E2"></path>
                <path d="M210.482183,168 C215.244315,165.063781 213.894864,158.397043 216.11836,156.811135 C218.341855,155.225227 222.865611,155.789315 233.740672,157.252712 C244.615733,158.71611 252,153.625856 252,153.625856 C252,153.625856 231.995275,146.894497 219.848876,149.671856 C207.702477,152.449214 205.169227,151.731651 205.003576,155.223881 C204.837925,158.71611 210.482183,168 210.482183,168 Z" id="Path" fill="#D3D3D3"></path>
                <path d="M262.010346,176.115385 C261.413647,177.189898 260.688484,178.161089 259.85648,179 C260.123197,178.195804 260.426399,177.186189 260.710729,176.011946 C261.386328,173.229312 260.621404,170.858974 256.830751,169.065559 C253.308072,167.375583 254.054125,160.907051 254.089352,154 C254.427781,159.646853 253.431366,164.13986 256.688585,165.946387 C261.312101,168.530886 264.785713,171.147436 262.010346,176.115385 Z" id="Path" fill="#D7D7D7"></path>
                <path d="M243,209 C251.331461,206.514202 256.186078,194.747915 257.504415,186 C257.561147,186.512453 257.657051,187.100029 257.774566,187.726509 C259.052381,194.747915 255.000114,207.045436 243,209 Z" id="Path" fill="#D0D0D0"></path>
                <path d="M216,204 C209.903574,199.616012 208.08749,194.250554 207.391304,189.635473 C207.255668,188.731487 207.118832,187.346283 207,185.634829 C207.60016,185.227016 208.189517,185 208.732062,185 C212.264604,185 210.922646,188.134721 210.922646,188.134721 C212.010136,195.998712 214.624433,201.53817 216,204 Z" id="Path" fill="#D2D2D2"></path>
                <path d="M213,179 C205.981401,173.140678 204.845611,167.281357 205.015494,162.441231 C205.047853,161.49373 205.195085,160.051392 205.442629,158.295564 C206.322785,158.024247 207.162493,157.928653 207.880856,158.055174 C212.546978,158.874748 210.034326,161.741149 210.034326,161.741149 C209.615281,169.965005 211.763898,176.185614 213,179 Z" id="Path" fill="#C1C1C1"></path>
                <path d="M254,154.133588 C253.56193,154.444115 253.106421,154.72939 252.635704,154.988016 C252.620889,154.989366 252.607128,154.996232 252.597157,155.007248 C251.652567,155.503785 250.67675,155.938778 249.675828,156.309495 C245.994568,157.650205 240.132637,158.797227 232.712298,156.775172 C224.143801,154.482503 214.677705,154.384972 213.003654,156.328727 C211.308953,158.272482 216.022728,165.307089 208.757953,169.1163 C208.757953,169.1163 213.606643,194.57331 208.037946,195.91402 C207.890434,195.950581 207.740431,195.976292 207.589147,195.990946 C203.343446,196.438765 200.89019,180.173038 199.759931,169.753687 C199.234037,164.896359 199,161.301443 199,161.301443 L204.473705,155.531993 L208.972717,152.130765 L224.650422,145.87366 L240.445145,145 L248.136692,145.549471 L250.614728,145.723929 L252.971615,145.879154 L253.55533,150.523561 L254,154.133588 Z" id="Path" fill="#232C33"></path>
                <path d="M257.998128,145.946762 C257.940792,149.338691 256.125145,152.709955 253.306114,154.488583 C252.707525,154.864814 252.065722,155.166 251.394906,155.385474 C251.380216,155.386828 251.366569,155.393714 251.356682,155.404762 L250.947137,155.521868 C250.214137,155.777199 249.465917,155.985647 248.706929,156.145972 C245.481084,156.885804 239.224609,157.724831 232.987246,155.191216 C224.026413,151.5265 208.324478,156.340229 208.324478,156.340229 L208.575665,159.342266 C207.10813,162.031562 205.602372,164.7801 203.476836,167.000973 C203.096933,167.392073 202.697326,167.763169 202.279601,168.112788 C201.284002,168.974111 200.16397,169.677032 198.958195,170.197267 C197.838526,170.696221 196.632448,170.967745 195.40881,170.996341 C192.319479,171.094159 189.093634,169.223224 188.206287,166.280429 C187.374912,163.55118 189.152335,160.277733 191.817104,159.667406 C190.098383,159.667406 188.404234,158.049971 188.495699,156.257566 C188.611736,154.619466 190.233532,153.294106 191.817104,153.274818 C189.982345,152.475744 189.247895,149.396555 190.619869,147.60415 C192.203441,145.479717 195.261374,145.089824 197.900205,145.439763 C200.507638,145.79108 203.09596,146.707259 205.760729,146.62873 C205.953215,146.62873 206.18529,146.609442 206.377776,146.590154 C210.27937,146.17684 213.716813,143.62807 216.53721,140.840957 C217.058696,140.333958 217.540594,139.82696 218.038873,139.300674 C220.452455,136.786347 222.808701,134.214157 225.783359,132.498904 C228.815353,130.764363 232.310133,130.042442 235.82539,130.003866 C237.460327,129.977229 239.094616,130.08829 240.711255,130.335895 C244.902261,130.958621 249.093266,132.343222 252.414672,134.973277 C255.719696,137.640529 258.075942,141.693761 257.998128,145.946762 Z" id="Path" fill="#232C33"></path>
                <path d="M192,151.667071 C191.989489,151.703214 192.227224,151.806081 192.691825,151.982624 C193.156427,152.159167 193.85333,152.377412 194.762156,152.62485 C197.347924,153.281533 200.00033,153.624007 202.664463,153.645184 C206.633205,153.683705 210.580831,153.050067 214.347433,151.769939 C218.629377,150.343696 222.839322,147.730307 227.29787,145.311532 C231.756417,142.892758 236.305983,141.073116 240.632757,141.027243 C244.940513,140.918815 248.783667,142.579985 250.911054,145.033512 C253.065611,147.510671 253.600854,150.338135 253.517986,152.149436 C253.437836,154.008 252.908027,154.958829 253.018064,154.999142 C253.052026,155.015823 253.183799,154.789236 253.405232,154.331893 C253.688406,153.646198 253.871496,152.921618 253.948626,152.181408 C254.168701,150.285311 253.740778,147.253503 251.503353,144.519175 C249.265929,141.784848 245.176889,139.942965 240.628682,140.001349 C236.03972,140.001349 231.283664,141.879375 226.787079,144.327341 C222.290494,146.775308 218.151191,149.370625 214.017321,150.801039 C210.358955,152.091311 206.525229,152.785554 202.656312,152.858387 C196.016038,152.952914 192.045187,151.423804 192,151.667071 Z" id="Path" fill="#353D43"></path>
                <path d="M192.011313,166.578197 C191.907076,166.657652 192.51947,167.474907 194.001956,168.35396 C195.449696,169.230491 197.877557,170.08306 200.661562,169.993515 C203.445566,169.90397 205.792354,168.884924 207.163364,167.915064 C208.560433,166.938899 209.096097,166.082547 208.986069,166.010658 C208.848533,165.90724 208.102947,166.571891 206.684162,167.332392 C202.981305,169.384197 198.296702,169.538915 194.426144,167.737235 C192.943658,167.078891 192.138714,166.46595 192.011313,166.578197 Z" id="Path" fill="#353D43"></path>
                <path d="M194.027618,160.039354 C193.789579,160.273494 195.101693,162.324838 197.522716,163.378468 C199.943739,164.432097 202.0527,163.902661 201.998996,163.553199 C201.978676,163.147822 200.067113,163.029005 197.934928,162.074973 C195.77807,161.143656 194.264204,159.747553 194.027618,160.039354 Z" id="Path" fill="#353D43"></path>
                <path d="M259.813643,159.999536 C259.938799,159.999536 260.085231,159.442151 259.938799,158.541656 C259.727294,157.354287 259.16499,156.273728 258.336802,155.463157 C257.507095,154.645968 256.457325,154.13877 255.341819,154.016127 C254.493261,153.941538 253.990134,154.142251 254.000147,154.279223 C253.988883,154.585717 256.002643,154.627758 257.654702,156.263296 C259.306761,157.898833 259.53079,160.036152 259.813643,159.999536 Z" id="Path" fill="#484689"></path>
                <path d="M261.849005,145.000512 C261.496639,144.958519 261.041071,147.509282 258.826624,149.991657 C256.668202,152.511226 253.840433,153.711021 254.007033,153.962978 C254.070429,154.202937 257.417163,153.300691 259.799683,150.544763 C262.217588,147.81283 262.155666,144.966917 261.849005,145.000512 Z" id="Path" fill="#242256"></path>
                <path d="M216.347207,191.903445 C213.213667,192.41039 209.435236,190.889556 206.546015,188.083452 C203.933784,185.530821 202.044569,181.906442 202.000534,177.775118 C201.939455,170.991978 207.124143,169.74528 212.207979,172.084389 C213.725529,172.787525 215.121783,173.714105 216.347207,174.831258 C216.347207,174.831258 222.315991,190.928128 216.347207,191.903445 Z" id="Path" fill="#C9C9C9"></path>
                <path d="M203.296674,179.129969 C203.191475,181.903174 204.674281,186.189783 206.008054,189 C203.704946,186.459838 202.039295,182.853164 202.000471,178.742022 C201.946619,171.992018 206.517769,170.75141 211,173.079092 C205.246614,172.809037 203.439444,175.387582 203.296674,179.129969 Z" id="Path" fill="#C1C1C1"></path>
                <path d="M259.998059,145.520221 C259.938603,148.822565 258.055837,152.10479 255.132595,153.836441 C254.511878,154.202736 253.84635,154.495967 253.150736,154.709645 C253.135503,154.710963 253.121352,154.717667 253.111099,154.728423 C252.1398,155.213266 251.136391,155.638014 250.107167,156 C250.207675,155.810873 250.28695,155.639183 250.36764,155.450056 C251.569495,152.527307 250.448329,148.295424 248.527342,145.488029 C248.308333,145.172953 248.072074,144.86895 247.819535,144.577269 C244.896293,141.179691 251.585067,139.586195 249.882084,137.289846 C248.300844,135.143724 242.072144,135.354312 237,130.003764 C238.695376,129.97783 240.39008,130.085958 242.066481,130.327023 C246.412415,130.933302 250.758349,132.281335 254.202537,134.841926 C257.6354,137.433367 260.078749,141.379548 259.998059,145.520221 Z" id="Path" fill="#353D43"></path>
                <polygon id="Path" fill="#FF4F00" points="249 204.618076 269.683407 173 273 175.381924 252.316593 207"></polygon>
                <polygon id="Path" fill="#FFFFFF" points="269 174.746179 271.9984 172.873754 275 171 273.976 174.001993 272.9536 177"></polygon>
                <polygon id="Path" fill="#F3F3F3" points="269 173.272291 271.9984 171.136903 275 169 273.3296 172.002273 271.6576 175"></polygon>
                <polygon id="Path" fill="#FF662A" points="250 206.228749 271.851418 175 273 175.771251 251.148582 207"></polygon>
                <polygon id="Path" fill="#E54405" points="248 204.228749 269.851418 173 271 173.771251 249.148582 205"></polygon>
                <polygon id="Path" fill="#FF662A" points="273 172.49668 275 170 274.317697 174"></polygon>
                <polygon id="Path" fill="#FF4F00" points="273 172.423523 275 171 273.886994 173"></polygon>
                <path d="M269.484677,292.425844 C236.128655,300.264657 204.711346,277.227448 209.481981,258.660757 C212.131418,248.302571 218.23569,242.658626 225.470534,240.881372 C228.382402,240.182904 231.402686,240.056873 234.362821,240.510312 C237.606011,240.985152 240.750479,241.98213 243.673584,243.462361 C248.802324,246.029657 266.278185,251.951555 275.093637,248.90503 C282.591916,246.322672 278.951855,232.160778 274.133198,221.463024 C273.309966,219.591293 272.429106,217.814039 271.561968,216.236692 C271.531539,216.171919 271.495258,216.110048 271.453576,216.051847 C270.819641,214.932428 270.094099,213.867198 269.284357,212.86703 C266.1547,208.862047 261.463645,204.347712 257.72754,200.034653 C251.778311,193.092683 248.370127,186.629941 258.176202,183.476616 C264.203638,181.528209 270.880057,185.733099 277.294412,192.81473 C279.663951,195.416258 282.003304,198.410753 284.25073,201.642123 C284.652742,202.199398 285.039661,202.770365 285.427953,203.359132 C289.052921,208.738816 292.425432,214.629222 295.404163,220.364905 C300.069149,229.347021 303.692745,237.890984 305.557367,243.307638 C310.709433,258.382805 302.824234,284.588401 269.484677,292.425844 Z" id="Path" fill="#D0D0D0"></path>
                <path d="M269.486995,292.418161 C236.129695,300.295234 204.711182,277.145583 209.481999,258.488272 C212.131538,248.079529 218.236044,242.408036 225.471165,240.622108 C219.022261,247.659877 212.968524,250.875374 222.899836,255.344322 C234.518841,260.572773 232.676101,275.743533 257.99148,275.929281 C283.30686,276.115028 301.527073,263.888711 300.751832,247.965328 C300.303153,238.782519 297.606962,227.721595 295.400614,220 C300.065779,229.025956 303.689514,237.611621 305.554208,243.054713 C310.713331,258.208963 302.827831,284.542464 269.486995,292.418161 Z" id="Path" fill="#C1C1C1"></path>
                <path d="M259.471781,253.993375 C246.407948,254.245149 235.229616,247.271984 234,241.350428 C237.183464,241.832825 240.270023,242.84567 243.139296,244.349459 C248.173586,246.957615 265.327611,252.97376 273.980717,249.878749 C281.340907,247.255292 277.767881,232.86801 273.037966,222 C275.653426,224.763949 278.771238,229.569911 280.414318,237.643369 C283.575227,253.208842 273.564559,253.742992 259.471781,253.993375 Z" id="Path" fill="#DFDCDC"></path>
                <path d="M277,192.794284 C275.99202,192.514651 275.01255,192.132018 274.075621,191.651865 C269.12357,189.183911 269.37345,192.061824 267.771354,194.322065 C266.169257,196.582307 265.875128,191.359427 262.392423,189.55424 C259.129665,187.887073 257.410438,193.426988 258.439892,200 C252.796765,193.07169 249.563941,186.621666 258.865469,183.474546 C264.582779,181.532706 270.915679,185.729321 277,192.794284 Z" id="Path" fill="#CDD3D8"></path>
                <path d="M284.156383,205.889681 C283.503315,206.565279 284.156383,207.466078 284.156383,207.836659 C284.156383,208.207241 281.708822,210.990878 278.609638,213.308438 C275.510454,215.625998 273.519463,215.787058 273.177036,215.432155 L271.284294,217 C270.616729,215.834725 269.852698,214.725859 269,213.684721 C270.288798,210.482041 272.067398,207.085519 273.519463,206.169042 C276.211202,204.445838 282.899371,202.337799 284.760326,202 C285.183665,202.580103 285.59111,203.174458 286,203.787343 C285.423952,204.520091 284.808531,205.221876 284.156383,205.889681 Z" id="Path" fill="#C1C1C1"></path>
                <path d="M266.013429,210.15113 C265.747482,210.765032 269.515949,214.813285 269.855032,214.997725 C270.194114,215.182165 284.395678,204.092887 284.93821,203.351088 C285.480742,202.60929 282.28539,198.193504 281.802696,198.002332 C281.320002,197.811161 266.324586,209.433565 266.013429,210.15113 Z" id="Path" fill="#F3F3F3"></path>
                <path d="M277.726518,198.021457 C278.985974,198.841623 282.607746,204.519915 282.987858,205.338685 C283.36797,206.157454 274.703021,213.058311 273.850445,212.999628 C272.99787,212.940945 267.257374,207.086604 268.080504,205.22551 C268.903634,203.364416 277.085413,197.605086 277.726518,198.021457 Z" id="Path" fill="#FFFFFF"></path>
                <rect id="Rectangle" fill="#425BD9" x="350" y="179" width="200" height="66" rx="5.41"></rect>
                <rect id="Rectangle" fill="#D6D6D6" x="381" y="192" width="143" height="4"></rect>
                <rect id="Rectangle" fill="#D6D6D6" x="381" y="207" width="143" height="4"></rect>
                <rect id="Rectangle" fill="#D6D6D6" x="381" y="222" width="143" height="4"></rect>
            </g>
        </g>
    </g>
</svg>